<?xml version="1.0" encoding="UTF-8" standalone="no"?>
<!DOCTYPE svg PUBLIC "-//W3C//DTD SVG 1.1//EN"
 "http://www.w3.org/Graphics/SVG/1.1/DTD/svg11.dtd">
<!-- Generated by graphviz version 7.1.0 (0)
 -->
<!-- Title: controllers_diagram Pages: 1 -->
<svg width="1192pt" height="1123pt"
 viewBox="0.00 0.00 1192.00 1123.00" xmlns="http://www.w3.org/2000/svg" xmlns:xlink="http://www.w3.org/1999/xlink">
<g id="graph0" class="graph" transform="scale(1 1) rotate(0) translate(4 1119)">
<title>controllers_diagram</title>
<polygon fill="none" stroke="none" points="-4,4 -4,-1119 1188,-1119 1188,4 -4,4"/>
<!-- _diagram_info -->
<g id="node1" class="node">
<title>_diagram_info</title>
<text text-anchor="start" x="44" y="-81.6" font-family="Times,serif" font-size="13.00">Controllers diagram</text>
<text text-anchor="start" x="44" y="-67.6" font-family="Times,serif" font-size="13.00">Date: Jun 08 2023 &#45; 16:00</text>
<text text-anchor="start" x="44" y="-53.6" font-family="Times,serif" font-size="13.00">Migration version: 20230510102025</text>
<text text-anchor="start" x="44" y="-39.6" font-family="Times,serif" font-size="13.00">Generated by RailRoady 1.6.0</text>
<text text-anchor="start" x="44" y="-25.6" font-family="Times,serif" font-size="13.00">http://railroady.prestonlee.com</text>
</g>
<!-- Api::Dashboard::ActionsController -->
<g id="node2" class="node">
<title>Api::Dashboard::ActionsController</title>
<path fill="none" stroke="black" d="M282,-252.5C282,-252.5 466,-252.5 466,-252.5 472,-252.5 478,-258.5 478,-264.5 478,-264.5 478,-364.5 478,-364.5 478,-370.5 472,-376.5 466,-376.5 466,-376.5 282,-376.5 282,-376.5 276,-376.5 270,-370.5 270,-364.5 270,-364.5 270,-264.5 270,-264.5 270,-258.5 276,-252.5 282,-252.5"/>
<text text-anchor="middle" x="374" y="-361.3" font-family="Times,serif" font-size="14.00">Api::Dashboard::ActionsController</text>
<polyline fill="none" stroke="black" points="270,-353.5 478,-353.5"/>
<text text-anchor="start" x="278" y="-338.3" font-family="Times,serif" font-size="14.00">actions</text>
<text text-anchor="start" x="278" y="-323.3" font-family="Times,serif" font-size="14.00">validate_last_seen_id</text>
<text text-anchor="start" x="278" y="-308.3" font-family="Times,serif" font-size="14.00">validate_params</text>
<polyline fill="none" stroke="black" points="270,-300.5 478,-300.5"/>
<polyline fill="none" stroke="black" points="270,-276.5 478,-276.5"/>
</g>
<!-- Api::Dashboard::DownloadController -->
<g id="node3" class="node">
<title>Api::Dashboard::DownloadController</title>
<path fill="none" stroke="black" d="M660,-468.5C660,-468.5 858,-468.5 858,-468.5 864,-468.5 870,-474.5 870,-480.5 870,-480.5 870,-550.5 870,-550.5 870,-556.5 864,-562.5 858,-562.5 858,-562.5 660,-562.5 660,-562.5 654,-562.5 648,-556.5 648,-550.5 648,-550.5 648,-480.5 648,-480.5 648,-474.5 654,-468.5 660,-468.5"/>
<text text-anchor="middle" x="759" y="-547.3" font-family="Times,serif" font-size="14.00">Api::Dashboard::DownloadController</text>
<polyline fill="none" stroke="black" points="648,-539.5 870,-539.5"/>
<text text-anchor="start" x="656" y="-524.3" font-family="Times,serif" font-size="14.00">download</text>
<polyline fill="none" stroke="black" points="648,-516.5 870,-516.5"/>
<polyline fill="none" stroke="black" points="648,-492.5 870,-492.5"/>
</g>
<!-- Api::Dashboard::TechnologiesController -->
<g id="node4" class="node">
<title>Api::Dashboard::TechnologiesController</title>
<path fill="none" stroke="black" d="M660,-342.5C660,-342.5 875,-342.5 875,-342.5 881,-342.5 887,-348.5 887,-354.5 887,-354.5 887,-424.5 887,-424.5 887,-430.5 881,-436.5 875,-436.5 875,-436.5 660,-436.5 660,-436.5 654,-436.5 648,-430.5 648,-424.5 648,-424.5 648,-354.5 648,-354.5 648,-348.5 654,-342.5 660,-342.5"/>
<text text-anchor="middle" x="767.5" y="-421.3" font-family="Times,serif" font-size="14.00">Api::Dashboard::TechnologiesController</text>
<polyline fill="none" stroke="black" points="648,-413.5 887,-413.5"/>
<text text-anchor="start" x="656" y="-398.3" font-family="Times,serif" font-size="14.00">technologies</text>
<polyline fill="none" stroke="black" points="648,-390.5 887,-390.5"/>
<polyline fill="none" stroke="black" points="648,-366.5 887,-366.5"/>
</g>
<!-- Api::Feed::HomeController -->
<g id="node5" class="node">
<title>Api::Feed::HomeController</title>
<path fill="none" stroke="black" d="M822,-792.5C822,-792.5 965,-792.5 965,-792.5 971,-792.5 977,-798.5 977,-804.5 977,-804.5 977,-934.5 977,-934.5 977,-940.5 971,-946.5 965,-946.5 965,-946.5 822,-946.5 822,-946.5 816,-946.5 810,-940.5 810,-934.5 810,-934.5 810,-804.5 810,-804.5 810,-798.5 816,-792.5 822,-792.5"/>
<text text-anchor="middle" x="893.5" y="-931.3" font-family="Times,serif" font-size="14.00">Api::Feed::HomeController</text>
<polyline fill="none" stroke="black" points="810,-923.5 977,-923.5"/>
<text text-anchor="start" x="818" y="-908.3" font-family="Times,serif" font-size="14.00">home</text>
<text text-anchor="start" x="818" y="-893.3" font-family="Times,serif" font-size="14.00">validate_params</text>
<text text-anchor="start" x="818" y="-878.3" font-family="Times,serif" font-size="14.00">validate_seen</text>
<text text-anchor="start" x="818" y="-863.3" font-family="Times,serif" font-size="14.00">validate_technologies</text>
<text text-anchor="start" x="818" y="-848.3" font-family="Times,serif" font-size="14.00">validate_type</text>
<polyline fill="none" stroke="black" points="810,-840.5 977,-840.5"/>
<polyline fill="none" stroke="black" points="810,-816.5 977,-816.5"/>
</g>
<!-- Api::Feed::TechnologiesController -->
<g id="node6" class="node">
<title>Api::Feed::TechnologiesController</title>
<path fill="none" stroke="black" d="M156,-126.5C156,-126.5 338,-126.5 338,-126.5 344,-126.5 350,-132.5 350,-138.5 350,-138.5 350,-208.5 350,-208.5 350,-214.5 344,-220.5 338,-220.5 338,-220.5 156,-220.5 156,-220.5 150,-220.5 144,-214.5 144,-208.5 144,-208.5 144,-138.5 144,-138.5 144,-132.5 150,-126.5 156,-126.5"/>
<text text-anchor="middle" x="247" y="-205.3" font-family="Times,serif" font-size="14.00">Api::Feed::TechnologiesController</text>
<polyline fill="none" stroke="black" points="144,-197.5 350,-197.5"/>
<text text-anchor="start" x="152" y="-182.3" font-family="Times,serif" font-size="14.00">technologies</text>
<polyline fill="none" stroke="black" points="144,-174.5 350,-174.5"/>
<polyline fill="none" stroke="black" points="144,-150.5 350,-150.5"/>
</g>
<!-- Api::Feed::UserController -->
<g id="node7" class="node">
<title>Api::Feed::UserController</title>
<path fill="none" stroke="black" d="M174,-612.5C174,-612.5 309,-612.5 309,-612.5 315,-612.5 321,-618.5 321,-624.5 321,-624.5 321,-754.5 321,-754.5 321,-760.5 315,-766.5 309,-766.5 309,-766.5 174,-766.5 174,-766.5 168,-766.5 162,-760.5 162,-754.5 162,-754.5 162,-624.5 162,-624.5 162,-618.5 168,-612.5 174,-612.5"/>
<text text-anchor="middle" x="241.5" y="-751.3" font-family="Times,serif" font-size="14.00">Api::Feed::UserController</text>
<polyline fill="none" stroke="black" points="162,-743.5 321,-743.5"/>
<text text-anchor="start" x="170" y="-728.3" font-family="Times,serif" font-size="14.00">user</text>
<text text-anchor="start" x="170" y="-713.3" font-family="Times,serif" font-size="14.00">validate_params</text>
<text text-anchor="start" x="170" y="-698.3" font-family="Times,serif" font-size="14.00">validate_seen</text>
<text text-anchor="start" x="170" y="-683.3" font-family="Times,serif" font-size="14.00">validate_technologies</text>
<text text-anchor="start" x="170" y="-668.3" font-family="Times,serif" font-size="14.00">validate_username</text>
<polyline fill="none" stroke="black" points="162,-660.5 321,-660.5"/>
<polyline fill="none" stroke="black" points="162,-636.5 321,-636.5"/>
</g>
<!-- Api::Project::AcceptController -->
<g id="node8" class="node">
<title>Api::Project::AcceptController</title>
<path fill="none" stroke="black" d="M156,-450.5C156,-450.5 316,-450.5 316,-450.5 322,-450.5 328,-456.5 328,-462.5 328,-462.5 328,-562.5 328,-562.5 328,-568.5 322,-574.5 316,-574.5 316,-574.5 156,-574.5 156,-574.5 150,-574.5 144,-568.5 144,-562.5 144,-562.5 144,-462.5 144,-462.5 144,-456.5 150,-450.5 156,-450.5"/>
<text text-anchor="middle" x="236" y="-559.3" font-family="Times,serif" font-size="14.00">Api::Project::AcceptController</text>
<polyline fill="none" stroke="black" points="144,-551.5 328,-551.5"/>
<text text-anchor="start" x="152" y="-536.3" font-family="Times,serif" font-size="14.00">accept</text>
<text text-anchor="start" x="152" y="-521.3" font-family="Times,serif" font-size="14.00">validate_params</text>
<text text-anchor="start" x="152" y="-506.3" font-family="Times,serif" font-size="14.00">validate_project</text>
<polyline fill="none" stroke="black" points="144,-498.5 328,-498.5"/>
<polyline fill="none" stroke="black" points="144,-474.5 328,-474.5"/>
</g>
<!-- Api::Project::InterruptController -->
<g id="node9" class="node">
<title>Api::Project::InterruptController</title>
<path fill="none" stroke="black" d="M588,-792.5C588,-792.5 757,-792.5 757,-792.5 763,-792.5 769,-798.5 769,-804.5 769,-804.5 769,-919.5 769,-919.5 769,-925.5 763,-931.5 757,-931.5 757,-931.5 588,-931.5 588,-931.5 582,-931.5 576,-925.5 576,-919.5 576,-919.5 576,-804.5 576,-804.5 576,-798.5 582,-792.5 588,-792.5"/>
<text text-anchor="middle" x="672.5" y="-916.3" font-family="Times,serif" font-size="14.00">Api::Project::InterruptController</text>
<polyline fill="none" stroke="black" points="576,-908.5 769,-908.5"/>
<text text-anchor="start" x="584" y="-893.3" font-family="Times,serif" font-size="14.00">interrupt</text>
<text text-anchor="start" x="584" y="-878.3" font-family="Times,serif" font-size="14.00">validate_comment</text>
<text text-anchor="start" x="584" y="-863.3" font-family="Times,serif" font-size="14.00">validate_params</text>
<text text-anchor="start" x="584" y="-848.3" font-family="Times,serif" font-size="14.00">validate_project</text>
<polyline fill="none" stroke="black" points="576,-840.5 769,-840.5"/>
<polyline fill="none" stroke="black" points="576,-816.5 769,-816.5"/>
</g>
<!-- Api::Project::NewController -->
<g id="node10" class="node">
<title>Api::Project::NewController</title>
<path fill="none" stroke="black" d="M390,-792.5C390,-792.5 537,-792.5 537,-792.5 543,-792.5 549,-798.5 549,-804.5 549,-804.5 549,-933.5 549,-933.5 549,-939.5 543,-945.5 537,-945.5 537,-945.5 390,-945.5 390,-945.5 384,-945.5 378,-939.5 378,-933.5 378,-933.5 378,-804.5 378,-804.5 378,-798.5 384,-792.5 390,-792.5"/>
<text text-anchor="middle" x="463.5" y="-930.3" font-family="Times,serif" font-size="14.00">Api::Project::NewController</text>
<polyline fill="none" stroke="black" points="378,-922.5 549,-922.5"/>
<text text-anchor="start" x="386" y="-907.3" font-family="Times,serif" font-size="14.00">new</text>
<polyline fill="none" stroke="black" points="378,-899.5 549,-899.5"/>
<polyline fill="none" stroke="black" points="378,-875.5 549,-875.5"/>
<text text-anchor="start" x="386" y="-860.3" font-family="Times,serif" font-size="14.00">validate_codemonkey</text>
<text text-anchor="start" x="386" y="-845.3" font-family="Times,serif" font-size="14.00">validate_description</text>
<text text-anchor="start" x="386" y="-830.3" font-family="Times,serif" font-size="14.00">validate_params</text>
<text text-anchor="start" x="386" y="-815.3" font-family="Times,serif" font-size="14.00">validate_technologies</text>
<text text-anchor="start" x="386" y="-800.3" font-family="Times,serif" font-size="14.00">validate_title</text>
</g>
<!-- Api::Project::RejectController -->
<g id="node11" class="node">
<title>Api::Project::RejectController</title>
<path fill="none" stroke="black" d="M66,-288.5C66,-288.5 222,-288.5 222,-288.5 228,-288.5 234,-294.5 234,-300.5 234,-300.5 234,-400.5 234,-400.5 234,-406.5 228,-412.5 222,-412.5 222,-412.5 66,-412.5 66,-412.5 60,-412.5 54,-406.5 54,-400.5 54,-400.5 54,-300.5 54,-300.5 54,-294.5 60,-288.5 66,-288.5"/>
<text text-anchor="middle" x="144" y="-397.3" font-family="Times,serif" font-size="14.00">Api::Project::RejectController</text>
<polyline fill="none" stroke="black" points="54,-389.5 234,-389.5"/>
<text text-anchor="start" x="62" y="-374.3" font-family="Times,serif" font-size="14.00">reject</text>
<text text-anchor="start" x="62" y="-359.3" font-family="Times,serif" font-size="14.00">validate_params</text>
<text text-anchor="start" x="62" y="-344.3" font-family="Times,serif" font-size="14.00">validate_project</text>
<polyline fill="none" stroke="black" points="54,-336.5 234,-336.5"/>
<polyline fill="none" stroke="black" points="54,-312.5 234,-312.5"/>
</g>
<!-- Api::Project::TerminateController -->
<g id="node12" class="node">
<title>Api::Project::TerminateController</title>
<path fill="none" stroke="black" d="M624,-594.5C624,-594.5 802,-594.5 802,-594.5 808,-594.5 814,-600.5 814,-606.5 814,-606.5 814,-736.5 814,-736.5 814,-742.5 808,-748.5 802,-748.5 802,-748.5 624,-748.5 624,-748.5 618,-748.5 612,-742.5 612,-736.5 612,-736.5 612,-606.5 612,-606.5 612,-600.5 618,-594.5 624,-594.5"/>
<text text-anchor="middle" x="713" y="-733.3" font-family="Times,serif" font-size="14.00">Api::Project::TerminateController</text>
<polyline fill="none" stroke="black" points="612,-725.5 814,-725.5"/>
<text text-anchor="start" x="620" y="-710.3" font-family="Times,serif" font-size="14.00">terminate</text>
<text text-anchor="start" x="620" y="-695.3" font-family="Times,serif" font-size="14.00">validate_comment</text>
<text text-anchor="start" x="620" y="-680.3" font-family="Times,serif" font-size="14.00">validate_params</text>
<text text-anchor="start" x="620" y="-665.3" font-family="Times,serif" font-size="14.00">validate_project</text>
<text text-anchor="start" x="620" y="-650.3" font-family="Times,serif" font-size="14.00">validate_rating</text>
<polyline fill="none" stroke="black" points="612,-642.5 814,-642.5"/>
<polyline fill="none" stroke="black" points="612,-618.5 814,-618.5"/>
</g>
<!-- Api::Report::BanController -->
<g id="node13" class="node">
<title>Api::Report::BanController</title>
<path fill="none" stroke="black" d="M192,-810.5C192,-810.5 334,-810.5 334,-810.5 340,-810.5 346,-816.5 346,-822.5 346,-822.5 346,-952.5 346,-952.5 346,-958.5 340,-964.5 334,-964.5 334,-964.5 192,-964.5 192,-964.5 186,-964.5 180,-958.5 180,-952.5 180,-952.5 180,-822.5 180,-822.5 180,-816.5 186,-810.5 192,-810.5"/>
<text text-anchor="middle" x="263" y="-949.3" font-family="Times,serif" font-size="14.00">Api::Report::BanController</text>
<polyline fill="none" stroke="black" points="180,-941.5 346,-941.5"/>
<text text-anchor="start" x="188" y="-926.3" font-family="Times,serif" font-size="14.00">ban</text>
<text text-anchor="start" x="188" y="-911.3" font-family="Times,serif" font-size="14.00">validate_name</text>
<text text-anchor="start" x="188" y="-896.3" font-family="Times,serif" font-size="14.00">validate_params</text>
<text text-anchor="start" x="188" y="-881.3" font-family="Times,serif" font-size="14.00">validate_reason</text>
<text text-anchor="start" x="188" y="-866.3" font-family="Times,serif" font-size="14.00">validate_status</text>
<polyline fill="none" stroke="black" points="180,-858.5 346,-858.5"/>
<polyline fill="none" stroke="black" points="180,-834.5 346,-834.5"/>
</g>
<!-- Api::Report::SendController -->
<g id="node14" class="node">
<title>Api::Report::SendController</title>
<path fill="none" stroke="black" d="M930,-342.5C930,-342.5 1077,-342.5 1077,-342.5 1083,-342.5 1089,-348.5 1089,-354.5 1089,-354.5 1089,-469.5 1089,-469.5 1089,-475.5 1083,-481.5 1077,-481.5 1077,-481.5 930,-481.5 930,-481.5 924,-481.5 918,-475.5 918,-469.5 918,-469.5 918,-354.5 918,-354.5 918,-348.5 924,-342.5 930,-342.5"/>
<text text-anchor="middle" x="1003.5" y="-466.3" font-family="Times,serif" font-size="14.00">Api::Report::SendController</text>
<polyline fill="none" stroke="black" points="918,-458.5 1089,-458.5"/>
<text text-anchor="start" x="926" y="-443.3" font-family="Times,serif" font-size="14.00">send_report</text>
<text text-anchor="start" x="926" y="-428.3" font-family="Times,serif" font-size="14.00">validate_description</text>
<text text-anchor="start" x="926" y="-413.3" font-family="Times,serif" font-size="14.00">validate_params</text>
<text text-anchor="start" x="926" y="-398.3" font-family="Times,serif" font-size="14.00">validate_to</text>
<polyline fill="none" stroke="black" points="918,-390.5 1089,-390.5"/>
<polyline fill="none" stroke="black" points="918,-366.5 1089,-366.5"/>
</g>
<!-- Api::Technology::ApproveController -->
<g id="node15" class="node">
<title>Api::Technology::ApproveController</title>
<path fill="none" stroke="black" d="M372,-630.5C372,-630.5 567,-630.5 567,-630.5 573,-630.5 579,-636.5 579,-642.5 579,-642.5 579,-742.5 579,-742.5 579,-748.5 573,-754.5 567,-754.5 567,-754.5 372,-754.5 372,-754.5 366,-754.5 360,-748.5 360,-742.5 360,-742.5 360,-642.5 360,-642.5 360,-636.5 366,-630.5 372,-630.5"/>
<text text-anchor="middle" x="469.5" y="-739.3" font-family="Times,serif" font-size="14.00">Api::Technology::ApproveController</text>
<polyline fill="none" stroke="black" points="360,-731.5 579,-731.5"/>
<text text-anchor="start" x="368" y="-716.3" font-family="Times,serif" font-size="14.00">approve</text>
<text text-anchor="start" x="368" y="-701.3" font-family="Times,serif" font-size="14.00">validate_name</text>
<text text-anchor="start" x="368" y="-686.3" font-family="Times,serif" font-size="14.00">validate_params</text>
<polyline fill="none" stroke="black" points="360,-678.5 579,-678.5"/>
<polyline fill="none" stroke="black" points="360,-654.5 579,-654.5"/>
</g>
<!-- Api::Technology::RejectController -->
<g id="node16" class="node">
<title>Api::Technology::RejectController</title>
<path fill="none" stroke="black" d="M534,-180.5C534,-180.5 716,-180.5 716,-180.5 722,-180.5 728,-186.5 728,-192.5 728,-192.5 728,-292.5 728,-292.5 728,-298.5 722,-304.5 716,-304.5 716,-304.5 534,-304.5 534,-304.5 528,-304.5 522,-298.5 522,-292.5 522,-292.5 522,-192.5 522,-192.5 522,-186.5 528,-180.5 534,-180.5"/>
<text text-anchor="middle" x="625" y="-289.3" font-family="Times,serif" font-size="14.00">Api::Technology::RejectController</text>
<polyline fill="none" stroke="black" points="522,-281.5 728,-281.5"/>
<text text-anchor="start" x="530" y="-266.3" font-family="Times,serif" font-size="14.00">reject</text>
<text text-anchor="start" x="530" y="-251.3" font-family="Times,serif" font-size="14.00">validate_name</text>
<text text-anchor="start" x="530" y="-236.3" font-family="Times,serif" font-size="14.00">validate_params</text>
<polyline fill="none" stroke="black" points="522,-228.5 728,-228.5"/>
<polyline fill="none" stroke="black" points="522,-204.5 728,-204.5"/>
</g>
<!-- Api::Technology::SuggestController -->
<g id="node17" class="node">
<title>Api::Technology::SuggestController</title>
<path fill="none" stroke="black" d="M516,-36.5C516,-36.5 707,-36.5 707,-36.5 713,-36.5 719,-42.5 719,-48.5 719,-48.5 719,-133.5 719,-133.5 719,-139.5 713,-145.5 707,-145.5 707,-145.5 516,-145.5 516,-145.5 510,-145.5 504,-139.5 504,-133.5 504,-133.5 504,-48.5 504,-48.5 504,-42.5 510,-36.5 516,-36.5"/>
<text text-anchor="middle" x="611.5" y="-130.3" font-family="Times,serif" font-size="14.00">Api::Technology::SuggestController</text>
<polyline fill="none" stroke="black" points="504,-122.5 719,-122.5"/>
<text text-anchor="start" x="512" y="-107.3" font-family="Times,serif" font-size="14.00">suggest</text>
<text text-anchor="start" x="512" y="-92.3" font-family="Times,serif" font-size="14.00">validate_params</text>
<polyline fill="none" stroke="black" points="504,-84.5 719,-84.5"/>
<polyline fill="none" stroke="black" points="504,-60.5 719,-60.5"/>
</g>
<!-- Api::User::DeleteController -->
<g id="node18" class="node">
<title>Api::User::DeleteController</title>
<path fill="none" stroke="black" d="M768,-18.5C768,-18.5 912,-18.5 912,-18.5 918,-18.5 924,-24.5 924,-30.5 924,-30.5 924,-100.5 924,-100.5 924,-106.5 918,-112.5 912,-112.5 912,-112.5 768,-112.5 768,-112.5 762,-112.5 756,-106.5 756,-100.5 756,-100.5 756,-30.5 756,-30.5 756,-24.5 762,-18.5 768,-18.5"/>
<text text-anchor="middle" x="840" y="-97.3" font-family="Times,serif" font-size="14.00">Api::User::DeleteController</text>
<polyline fill="none" stroke="black" points="756,-89.5 924,-89.5"/>
<text text-anchor="start" x="764" y="-74.3" font-family="Times,serif" font-size="14.00">delete</text>
<polyline fill="none" stroke="black" points="756,-66.5 924,-66.5"/>
<polyline fill="none" stroke="black" points="756,-42.5 924,-42.5"/>
</g>
<!-- Api::User::IndexController -->
<g id="node19" class="node">
<title>Api::User::IndexController</title>
<path fill="none" stroke="black" d="M822,-990.5C822,-990.5 962,-990.5 962,-990.5 968,-990.5 974,-996.5 974,-1002.5 974,-1002.5 974,-1102.5 974,-1102.5 974,-1108.5 968,-1114.5 962,-1114.5 962,-1114.5 822,-1114.5 822,-1114.5 816,-1114.5 810,-1108.5 810,-1102.5 810,-1102.5 810,-1002.5 810,-1002.5 810,-996.5 816,-990.5 822,-990.5"/>
<text text-anchor="middle" x="892" y="-1099.3" font-family="Times,serif" font-size="14.00">Api::User::IndexController</text>
<polyline fill="none" stroke="black" points="810,-1091.5 974,-1091.5"/>
<text text-anchor="start" x="818" y="-1076.3" font-family="Times,serif" font-size="14.00">index</text>
<text text-anchor="start" x="818" y="-1061.3" font-family="Times,serif" font-size="14.00">validate_params</text>
<text text-anchor="start" x="818" y="-1046.3" font-family="Times,serif" font-size="14.00">validate_username</text>
<polyline fill="none" stroke="black" points="810,-1038.5 974,-1038.5"/>
<polyline fill="none" stroke="black" points="810,-1014.5 974,-1014.5"/>
</g>
<!-- Api::User::LoginController -->
<g id="node20" class="node">
<title>Api::User::LoginController</title>
<path fill="none" stroke="black" d="M768,-144.5C768,-144.5 909,-144.5 909,-144.5 915,-144.5 921,-150.5 921,-156.5 921,-156.5 921,-286.5 921,-286.5 921,-292.5 915,-298.5 909,-298.5 909,-298.5 768,-298.5 768,-298.5 762,-298.5 756,-292.5 756,-286.5 756,-286.5 756,-156.5 756,-156.5 756,-150.5 762,-144.5 768,-144.5"/>
<text text-anchor="middle" x="838.5" y="-283.3" font-family="Times,serif" font-size="14.00">Api::User::LoginController</text>
<polyline fill="none" stroke="black" points="756,-275.5 921,-275.5"/>
<text text-anchor="start" x="764" y="-260.3" font-family="Times,serif" font-size="14.00">login</text>
<text text-anchor="start" x="764" y="-245.3" font-family="Times,serif" font-size="14.00">validate_params</text>
<text text-anchor="start" x="764" y="-230.3" font-family="Times,serif" font-size="14.00">validate_password</text>
<text text-anchor="start" x="764" y="-215.3" font-family="Times,serif" font-size="14.00">validate_totp</text>
<text text-anchor="start" x="764" y="-200.3" font-family="Times,serif" font-size="14.00">validate_user</text>
<polyline fill="none" stroke="black" points="756,-192.5 921,-192.5"/>
<polyline fill="none" stroke="black" points="756,-168.5 921,-168.5"/>
</g>
<!-- Api::User::LogoutController -->
<g id="node21" class="node">
<title>Api::User::LogoutController</title>
<path fill="none" stroke="black" d="M300,-0.5C300,-0.5 448,-0.5 448,-0.5 454,-0.5 460,-6.5 460,-12.5 460,-12.5 460,-82.5 460,-82.5 460,-88.5 454,-94.5 448,-94.5 448,-94.5 300,-94.5 300,-94.5 294,-94.5 288,-88.5 288,-82.5 288,-82.5 288,-12.5 288,-12.5 288,-6.5 294,-0.5 300,-0.5"/>
<text text-anchor="middle" x="374" y="-79.3" font-family="Times,serif" font-size="14.00">Api::User::LogoutController</text>
<polyline fill="none" stroke="black" points="288,-71.5 460,-71.5"/>
<text text-anchor="start" x="296" y="-56.3" font-family="Times,serif" font-size="14.00">logout</text>
<polyline fill="none" stroke="black" points="288,-48.5 460,-48.5"/>
<polyline fill="none" stroke="black" points="288,-24.5 460,-24.5"/>
</g>
<!-- Api::User::Propic::DeleteController -->
<g id="node22" class="node">
<title>Api::User::Propic::DeleteController</title>
<path fill="none" stroke="black" d="M966,-36.5C966,-36.5 1153,-36.5 1153,-36.5 1159,-36.5 1165,-42.5 1165,-48.5 1165,-48.5 1165,-118.5 1165,-118.5 1165,-124.5 1159,-130.5 1153,-130.5 1153,-130.5 966,-130.5 966,-130.5 960,-130.5 954,-124.5 954,-118.5 954,-118.5 954,-48.5 954,-48.5 954,-42.5 960,-36.5 966,-36.5"/>
<text text-anchor="middle" x="1059.5" y="-115.3" font-family="Times,serif" font-size="14.00">Api::User::Propic::DeleteController</text>
<polyline fill="none" stroke="black" points="954,-107.5 1165,-107.5"/>
<text text-anchor="start" x="962" y="-92.3" font-family="Times,serif" font-size="14.00">delete</text>
<polyline fill="none" stroke="black" points="954,-84.5 1165,-84.5"/>
<polyline fill="none" stroke="black" points="954,-60.5 1165,-60.5"/>
</g>
<!-- Api::User::Propic::DownloadController -->
<g id="node23" class="node">
<title>Api::User::Propic::DownloadController</title>
<path fill="none" stroke="black" d="M858,-594.5C858,-594.5 1066,-594.5 1066,-594.5 1072,-594.5 1078,-600.5 1078,-606.5 1078,-606.5 1078,-690.5 1078,-690.5 1078,-696.5 1072,-702.5 1066,-702.5 1066,-702.5 858,-702.5 858,-702.5 852,-702.5 846,-696.5 846,-690.5 846,-690.5 846,-606.5 846,-606.5 846,-600.5 852,-594.5 858,-594.5"/>
<text text-anchor="middle" x="962" y="-687.3" font-family="Times,serif" font-size="14.00">Api::User::Propic::DownloadController</text>
<polyline fill="none" stroke="black" points="846,-679.5 1078,-679.5"/>
<text text-anchor="start" x="854" y="-664.3" font-family="Times,serif" font-size="14.00">download</text>
<polyline fill="none" stroke="black" points="846,-656.5 1078,-656.5"/>
<polyline fill="none" stroke="black" points="846,-632.5 1078,-632.5"/>
<text text-anchor="start" x="854" y="-617.3" font-family="Times,serif" font-size="14.00">extract_params_and_validate</text>
<text text-anchor="start" x="854" y="-602.3" font-family="Times,serif" font-size="14.00">validate_username</text>
</g>
<!-- Api::User::Propic::UploadController -->
<g id="node24" class="node">
<title>Api::User::Propic::UploadController</title>
<path fill="none" stroke="black" d="M966,-162.5C966,-162.5 1157,-162.5 1157,-162.5 1163,-162.5 1169,-168.5 1169,-174.5 1169,-174.5 1169,-244.5 1169,-244.5 1169,-250.5 1163,-256.5 1157,-256.5 1157,-256.5 966,-256.5 966,-256.5 960,-256.5 954,-250.5 954,-244.5 954,-244.5 954,-174.5 954,-174.5 954,-168.5 960,-162.5 966,-162.5"/>
<text text-anchor="middle" x="1061.5" y="-241.3" font-family="Times,serif" font-size="14.00">Api::User::Propic::UploadController</text>
<polyline fill="none" stroke="black" points="954,-233.5 1169,-233.5"/>
<text text-anchor="start" x="962" y="-218.3" font-family="Times,serif" font-size="14.00">upload</text>
<polyline fill="none" stroke="black" points="954,-210.5 1169,-210.5"/>
<polyline fill="none" stroke="black" points="954,-186.5 1169,-186.5"/>
</g>
<!-- Api::User::RatingByTechnologiesController -->
<g id="node25" class="node">
<title>Api::User::RatingByTechnologiesController</title>
<path fill="none" stroke="black" d="M372,-414.5C372,-414.5 605,-414.5 605,-414.5 611,-414.5 617,-420.5 617,-426.5 617,-426.5 617,-541.5 617,-541.5 617,-547.5 611,-553.5 605,-553.5 605,-553.5 372,-553.5 372,-553.5 366,-553.5 360,-547.5 360,-541.5 360,-541.5 360,-426.5 360,-426.5 360,-420.5 366,-414.5 372,-414.5"/>
<text text-anchor="middle" x="488.5" y="-538.3" font-family="Times,serif" font-size="14.00">Api::User::RatingByTechnologiesController</text>
<polyline fill="none" stroke="black" points="360,-530.5 617,-530.5"/>
<text text-anchor="start" x="368" y="-515.3" font-family="Times,serif" font-size="14.00">rating_by_technologies</text>
<text text-anchor="start" x="368" y="-500.3" font-family="Times,serif" font-size="14.00">validate_params</text>
<text text-anchor="start" x="368" y="-485.3" font-family="Times,serif" font-size="14.00">validate_technologies</text>
<text text-anchor="start" x="368" y="-470.3" font-family="Times,serif" font-size="14.00">validate_username</text>
<polyline fill="none" stroke="black" points="360,-462.5 617,-462.5"/>
<polyline fill="none" stroke="black" points="360,-438.5 617,-438.5"/>
</g>
<!-- Api::User::SettingsController -->
<g id="node26" class="node">
<title>Api::User::SettingsController</title>
<path fill="none" stroke="black" d="M408,-990.5C408,-990.5 560,-990.5 560,-990.5 566,-990.5 572,-996.5 572,-1002.5 572,-1002.5 572,-1086.5 572,-1086.5 572,-1092.5 566,-1098.5 560,-1098.5 560,-1098.5 408,-1098.5 408,-1098.5 402,-1098.5 396,-1092.5 396,-1086.5 396,-1086.5 396,-1002.5 396,-1002.5 396,-996.5 402,-990.5 408,-990.5"/>
<text text-anchor="middle" x="484" y="-1083.3" font-family="Times,serif" font-size="14.00">Api::User::SettingsController</text>
<polyline fill="none" stroke="black" points="396,-1075.5 572,-1075.5"/>
<text text-anchor="start" x="404" y="-1060.3" font-family="Times,serif" font-size="14.00">settings</text>
<polyline fill="none" stroke="black" points="396,-1052.5 572,-1052.5"/>
<polyline fill="none" stroke="black" points="396,-1028.5 572,-1028.5"/>
<text text-anchor="start" x="404" y="-1013.3" font-family="Times,serif" font-size="14.00">validate_params</text>
<text text-anchor="start" x="404" y="-998.3" font-family="Times,serif" font-size="14.00">validate_password</text>
</g>
<!-- Api::User::SignupController -->
<g id="node27" class="node">
<title>Api::User::SignupController</title>
<path fill="none" stroke="black" d="M624,-972.5C624,-972.5 771,-972.5 771,-972.5 777,-972.5 783,-978.5 783,-984.5 783,-984.5 783,-1083.5 783,-1083.5 783,-1089.5 777,-1095.5 771,-1095.5 771,-1095.5 624,-1095.5 624,-1095.5 618,-1095.5 612,-1089.5 612,-1083.5 612,-1083.5 612,-984.5 612,-984.5 612,-978.5 618,-972.5 624,-972.5"/>
<text text-anchor="middle" x="697.5" y="-1080.3" font-family="Times,serif" font-size="14.00">Api::User::SignupController</text>
<polyline fill="none" stroke="black" points="612,-1072.5 783,-1072.5"/>
<text text-anchor="start" x="620" y="-1057.3" font-family="Times,serif" font-size="14.00">signup</text>
<polyline fill="none" stroke="black" points="612,-1049.5 783,-1049.5"/>
<polyline fill="none" stroke="black" points="612,-1025.5 783,-1025.5"/>
<text text-anchor="start" x="620" y="-1010.3" font-family="Times,serif" font-size="14.00">validate_params</text>
<text text-anchor="start" x="620" y="-995.3" font-family="Times,serif" font-size="14.00">validate_password</text>
<text text-anchor="start" x="620" y="-980.3" font-family="Times,serif" font-size="14.00">validate_type</text>
</g>
<!-- Api::WhoamiController -->
<g id="node28" class="node">
<title>Api::WhoamiController</title>
<path fill="none" stroke="black" d="M12,-990.5C12,-990.5 136,-990.5 136,-990.5 142,-990.5 148,-996.5 148,-1002.5 148,-1002.5 148,-1072.5 148,-1072.5 148,-1078.5 142,-1084.5 136,-1084.5 136,-1084.5 12,-1084.5 12,-1084.5 6,-1084.5 0,-1078.5 0,-1072.5 0,-1072.5 0,-1002.5 0,-1002.5 0,-996.5 6,-990.5 12,-990.5"/>
<text text-anchor="middle" x="74" y="-1069.3" font-family="Times,serif" font-size="14.00">Api::WhoamiController</text>
<polyline fill="none" stroke="black" points="0,-1061.5 148,-1061.5"/>
<text text-anchor="start" x="8" y="-1046.3" font-family="Times,serif" font-size="14.00">whoami</text>
<polyline fill="none" stroke="black" points="0,-1038.5 148,-1038.5"/>
<polyline fill="none" stroke="black" points="0,-1014.5 148,-1014.5"/>
</g>
<!-- ApplicationController -->
<g id="node29" class="node">
<title>ApplicationController</title>
<path fill="none" stroke="black" d="M1020,-738.5C1020,-738.5 1172,-738.5 1172,-738.5 1178,-738.5 1184,-744.5 1184,-750.5 1184,-750.5 1184,-850.5 1184,-850.5 1184,-856.5 1178,-862.5 1172,-862.5 1172,-862.5 1020,-862.5 1020,-862.5 1014,-862.5 1008,-856.5 1008,-850.5 1008,-850.5 1008,-750.5 1008,-750.5 1008,-744.5 1014,-738.5 1020,-738.5"/>
<text text-anchor="middle" x="1096" y="-847.3" font-family="Times,serif" font-size="14.00">ApplicationController</text>
<polyline fill="none" stroke="black" points="1008,-839.5 1184,-839.5"/>
<text text-anchor="start" x="1016" y="-824.3" font-family="Times,serif" font-size="14.00">errors</text>
<text text-anchor="start" x="1016" y="-809.3" font-family="Times,serif" font-size="14.00">except</text>
<text text-anchor="start" x="1016" y="-794.3" font-family="Times,serif" font-size="14.00">extract_params_and_validate</text>
<polyline fill="none" stroke="black" points="1008,-786.5 1184,-786.5"/>
<polyline fill="none" stroke="black" points="1008,-762.5 1184,-762.5"/>
</g>
<!-- AuthenticationController -->
<g id="node30" class="node">
<title>AuthenticationController</title>
<path fill="none" stroke="black" d="M1020,-900.5C1020,-900.5 1148,-900.5 1148,-900.5 1154,-900.5 1160,-906.5 1160,-912.5 1160,-912.5 1160,-1027.5 1160,-1027.5 1160,-1033.5 1154,-1039.5 1148,-1039.5 1148,-1039.5 1020,-1039.5 1020,-1039.5 1014,-1039.5 1008,-1033.5 1008,-1027.5 1008,-1027.5 1008,-912.5 1008,-912.5 1008,-906.5 1014,-900.5 1020,-900.5"/>
<text text-anchor="middle" x="1084" y="-1024.3" font-family="Times,serif" font-size="14.00">AuthenticationController</text>
<polyline fill="none" stroke="black" points="1008,-1016.5 1160,-1016.5"/>
<text text-anchor="start" x="1016" y="-1001.3" font-family="Times,serif" font-size="14.00">authenticate_user!</text>
<text text-anchor="start" x="1016" y="-986.3" font-family="Times,serif" font-size="14.00">current_user</text>
<text text-anchor="start" x="1016" y="-971.3" font-family="Times,serif" font-size="14.00">validate_header</text>
<text text-anchor="start" x="1016" y="-956.3" font-family="Times,serif" font-size="14.00">validate_user</text>
<polyline fill="none" stroke="black" points="1008,-948.5 1160,-948.5"/>
<polyline fill="none" stroke="black" points="1008,-924.5 1160,-924.5"/>
</g>
</g>
</svg>
