<?xml version="1.0" encoding="UTF-8" standalone="no"?>
<!DOCTYPE svg PUBLIC "-//W3C//DTD SVG 1.1//EN"
 "http://www.w3.org/Graphics/SVG/1.1/DTD/svg11.dtd">
<!-- Generated by graphviz version 7.1.0 (0)
 -->
<!-- Title: models_diagram Pages: 1 -->
<svg width="831pt" height="406pt"
 viewBox="0.00 0.00 831.06 406.00" xmlns="http://www.w3.org/2000/svg" xmlns:xlink="http://www.w3.org/1999/xlink">
<g id="graph0" class="graph" transform="scale(1 1) rotate(0) translate(4 402)">
<title>models_diagram</title>
<polygon fill="none" stroke="none" points="-4,4 -4,-402 827.06,-402 827.06,4 -4,4"/>
<!-- _diagram_info -->
<g id="node1" class="node">
<title>_diagram_info</title>
<text text-anchor="start" x="93.06" y="-383.6" font-family="Times,serif" font-size="13.00">Models diagram</text>
<text text-anchor="start" x="93.06" y="-369.6" font-family="Times,serif" font-size="13.00">Date: Jun 08 2023 &#45; 16:00</text>
<text text-anchor="start" x="93.06" y="-355.6" font-family="Times,serif" font-size="13.00">Migration version: 20230510102025</text>
<text text-anchor="start" x="93.06" y="-341.6" font-family="Times,serif" font-size="13.00">Generated by RailRoady 1.6.0</text>
<text text-anchor="start" x="93.06" y="-327.6" font-family="Times,serif" font-size="13.00">http://railroady.prestonlee.com</text>
</g>
<!-- Action -->
<g id="node2" class="node">
<title>Action</title>
<ellipse fill="none" stroke="black" cx="424.06" cy="-192" rx="34.39" ry="18"/>
<text text-anchor="middle" x="424.06" y="-188.3" font-family="Times,serif" font-size="14.00">Action</text>
</g>
<!-- User -->
<g id="node10" class="node">
<title>User</title>
<ellipse fill="none" stroke="black" cx="428.06" cy="-105" rx="27.1" ry="18"/>
<text text-anchor="middle" x="428.06" y="-101.3" font-family="Times,serif" font-size="14.00">User</text>
</g>
<!-- Action&#45;&gt;User -->
<g id="edge1" class="edge">
<title>Action&#45;&gt;User</title>
<path fill="none" stroke="#fbc43c" d="M425.32,-164.2C425.78,-154.32 426.31,-143.13 426.77,-133.22"/>
<polygon fill="#fbc43c" stroke="#fbc43c" points="425.34,-163.81 420.37,-173.59 425.1,-168.8 424.86,-173.8 424.86,-173.8 424.86,-173.8 425.1,-168.8 429.36,-174.01 425.34,-163.81 425.34,-163.81"/>
<polygon fill="#fbc43c" stroke="#fbc43c" points="426.76,-133.46 431.73,-123.68 427,-128.46 427.23,-123.47 427.23,-123.47 427.23,-123.47 427,-128.46 422.74,-123.26 426.76,-133.46 426.76,-133.46"/>
</g>
<!-- Admin -->
<g id="node3" class="node">
<title>Admin</title>
<ellipse fill="none" stroke="black" cx="93.06" cy="-265" rx="36" ry="18"/>
<text text-anchor="middle" x="93.06" y="-261.3" font-family="Times,serif" font-size="14.00">Admin</text>
</g>
<!-- Admin&#45;&gt;Action -->
<g id="edge4" class="edge">
<title>Admin&#45;&gt;Action</title>
<path fill="none" stroke="#79c224" d="M137.03,-257.73C193.08,-249.26 292.71,-232.57 376.06,-210 379.79,-208.99 383.65,-207.83 387.48,-206.6"/>
<polygon fill="#79c224" stroke="#79c224" points="137.3,-257.69 126.75,-254.72 132.36,-258.43 127.41,-259.17 127.41,-259.17 127.41,-259.17 132.36,-258.43 128.08,-263.62 137.3,-257.69 137.3,-257.69"/>
<polygon fill="#79c224" stroke="#79c224" points="387.39,-206.63 398.3,-207.7 392.13,-205.03 396.87,-203.44 396.87,-203.44 396.87,-203.44 392.13,-205.03 395.43,-199.17 387.39,-206.63 387.39,-206.63"/>
</g>
<!-- Report -->
<g id="node8" class="node">
<title>Report</title>
<ellipse fill="none" stroke="black" cx="336.06" cy="-18" rx="34.39" ry="18"/>
<text text-anchor="middle" x="336.06" y="-14.3" font-family="Times,serif" font-size="14.00">Report</text>
</g>
<!-- Admin&#45;&gt;Report -->
<g id="edge2" class="edge">
<title>Admin&#45;&gt;Report</title>
<path fill="none" stroke="#6312ca" d="M67.51,-242.6C45.94,-222.72 16.61,-190.98 4.06,-156 -14.76,-103.57 39.31,-75.58 79.06,-54 114.84,-34.58 228.3,-25.13 291.84,-21.26"/>
<polygon fill="#6312ca" stroke="#6312ca" points="67.34,-242.44 71.77,-252.47 71.06,-245.78 74.78,-249.12 74.78,-249.12 74.78,-249.12 71.06,-245.78 77.78,-245.77 67.34,-242.44 67.34,-242.44"/>
<polygon fill="#6312ca" stroke="#6312ca" points="291.61,-21.27 301.86,-25.17 296.6,-20.98 301.59,-20.68 301.59,-20.68 301.59,-20.68 296.6,-20.98 301.33,-16.19 291.61,-21.27 291.61,-21.27"/>
<text text-anchor="middle" x="37.56" y="-144.8" font-family="Times,serif" font-size="14.00">sent_reports</text>
</g>
<!-- Admin&#45;&gt;Report -->
<g id="edge3" class="edge">
<title>Admin&#45;&gt;Report</title>
<path fill="none" stroke="#434761" d="M87.45,-237.01C83.4,-211.23 80.73,-171.84 94.06,-141 116.26,-89.64 135.83,-80.6 185.06,-54 218.49,-35.94 260.99,-27.15 292.37,-22.9"/>
<polygon fill="#434761" stroke="#434761" points="87.44,-236.98 84.72,-247.61 88.3,-241.91 89.16,-246.83 89.16,-246.83 89.16,-246.83 88.3,-241.91 93.59,-246.06 87.44,-236.98 87.44,-236.98"/>
<polygon fill="#434761" stroke="#434761" points="292.22,-22.92 302.71,-26.14 297.19,-22.3 302.15,-21.68 302.15,-21.68 302.15,-21.68 297.19,-22.3 301.59,-17.21 292.22,-22.92 292.22,-22.92"/>
<text text-anchor="middle" x="139.56" y="-144.8" font-family="Times,serif" font-size="14.00">recieved_reports</text>
</g>
<!-- ApplicationRecord -->
<g id="node4" class="node">
<title>ApplicationRecord</title>
<ellipse fill="none" stroke="black" cx="732.06" cy="-359" rx="77.19" ry="18"/>
<text text-anchor="middle" x="732.06" y="-355.3" font-family="Times,serif" font-size="14.00">ApplicationRecord</text>
</g>
<!-- Codemonkey -->
<g id="node5" class="node">
<title>Codemonkey</title>
<ellipse fill="none" stroke="black" cx="375.06" cy="-359" rx="57.69" ry="18"/>
<text text-anchor="middle" x="375.06" y="-355.3" font-family="Times,serif" font-size="14.00">Codemonkey</text>
</g>
<!-- Codemonkey&#45;&gt;Action -->
<g id="edge7" class="edge">
<title>Codemonkey&#45;&gt;Action</title>
<path fill="none" stroke="#ef645e" d="M376.61,-331.02C378.94,-304.02 384.73,-261.76 399.06,-228 400.66,-224.21 402.74,-220.43 405,-216.83"/>
<polygon fill="#ef645e" stroke="#ef645e" points="376.61,-330.94 371.36,-340.57 376.23,-335.92 375.85,-340.91 375.85,-340.91 375.85,-340.91 376.23,-335.92 380.34,-341.25 376.61,-330.94 376.61,-330.94"/>
<polygon fill="#ef645e" stroke="#ef645e" points="404.84,-217.08 414.21,-211.39 407.67,-212.96 410.51,-208.84 410.51,-208.84 410.51,-208.84 407.67,-212.96 406.8,-206.29 404.84,-217.08 404.84,-217.08"/>
</g>
<!-- Project -->
<g id="node7" class="node">
<title>Project</title>
<ellipse fill="none" stroke="black" cx="527.06" cy="-265" rx="36" ry="18"/>
<text text-anchor="middle" x="527.06" y="-261.3" font-family="Times,serif" font-size="14.00">Project</text>
</g>
<!-- Codemonkey&#45;&gt;Project -->
<g id="edge8" class="edge">
<title>Codemonkey&#45;&gt;Project</title>
<path fill="none" stroke="#2d2962" d="M408.79,-337.58C435.02,-321.7 471.1,-299.87 496.49,-284.5"/>
<polygon fill="#2d2962" stroke="#2d2962" points="409.05,-337.42 398.17,-338.75 404.77,-340.01 400.5,-342.6 400.5,-342.6 400.5,-342.6 404.77,-340.01 402.83,-346.45 409.05,-337.42 409.05,-337.42"/>
<polygon fill="#2d2962" stroke="#2d2962" points="496.44,-284.53 507.32,-283.2 500.72,-281.94 504.99,-279.35 504.99,-279.35 504.99,-279.35 500.72,-281.94 502.66,-275.5 496.44,-284.53 496.44,-284.53"/>
</g>
<!-- Codemonkey&#45;&gt;Report -->
<g id="edge5" class="edge">
<title>Codemonkey&#45;&gt;Report</title>
<path fill="none" stroke="#4c8d4c" d="M340.86,-337.72C330.45,-331.78 318.89,-325.43 308.06,-320 290.27,-311.08 282.9,-314.05 267.06,-302 225.07,-270.06 209.75,-259.7 192.06,-210 186.69,-194.93 187.98,-189.47 192.06,-174 207.68,-114.72 214.93,-95.49 260.06,-54 270.64,-44.27 284.4,-36.83 297.3,-31.37"/>
<polygon fill="#4c8d4c" stroke="#4c8d4c" points="340.63,-337.58 347.05,-346.47 344.97,-340.08 349.3,-342.57 349.3,-342.57 349.3,-342.57 344.97,-340.08 351.55,-338.68 340.63,-337.58 340.63,-337.58"/>
<polygon fill="#4c8d4c" stroke="#4c8d4c" points="297.18,-31.41 308.14,-31.92 301.83,-29.57 306.48,-27.73 306.48,-27.73 306.48,-27.73 301.83,-29.57 304.82,-23.55 297.18,-31.41 297.18,-31.41"/>
<text text-anchor="middle" x="225.56" y="-188.3" font-family="Times,serif" font-size="14.00">sent_reports</text>
</g>
<!-- Codemonkey&#45;&gt;Report -->
<g id="edge6" class="edge">
<title>Codemonkey&#45;&gt;Report</title>
<path fill="none" stroke="#c3f948" d="M355.49,-333.43C334.57,-305.44 302.71,-257.42 290.06,-210 279.98,-172.22 283.45,-91.55 301.06,-54 303.34,-49.14 306.59,-44.56 310.2,-40.43"/>
<polygon fill="#c3f948" stroke="#c3f948" points="355.28,-333.15 357.76,-343.84 358.31,-337.13 361.34,-341.11 361.34,-341.11 361.34,-341.11 358.31,-337.13 364.92,-338.39 355.28,-333.15 355.28,-333.15"/>
<polygon fill="#c3f948" stroke="#c3f948" points="309.99,-40.64 320.19,-36.62 313.48,-37.06 316.97,-33.48 316.97,-33.48 316.97,-33.48 313.48,-37.06 313.75,-30.34 309.99,-40.64 309.99,-40.64"/>
<text text-anchor="middle" x="335.56" y="-188.3" font-family="Times,serif" font-size="14.00">recieved_reports</text>
</g>
<!-- Technology -->
<g id="node9" class="node">
<title>Technology</title>
<ellipse fill="none" stroke="black" cx="529.06" cy="-192" rx="52.79" ry="18"/>
<text text-anchor="middle" x="529.06" y="-188.3" font-family="Times,serif" font-size="14.00">Technology</text>
</g>
<!-- Codemonkey&#45;&gt;Technology -->
<g id="edge9" class="edge">
<title>Codemonkey&#45;&gt;Technology</title>
<path fill="none" stroke="#b130ee" d="M397.42,-334.04C426.83,-302.52 478.2,-247.49 507.31,-216.3"/>
<polygon fill="#b130ee" stroke="#b130ee" points="397.49,-333.96 387.38,-338.2 394.08,-337.62 390.67,-341.27 390.67,-341.27 390.67,-341.27 394.08,-337.62 393.96,-344.34 397.49,-333.96 397.49,-333.96"/>
<polygon fill="#b130ee" stroke="#b130ee" points="507.03,-216.59 517.15,-212.35 510.45,-212.94 513.86,-209.28 513.86,-209.28 513.86,-209.28 510.45,-212.94 510.57,-206.21 507.03,-216.59 507.03,-216.59"/>
</g>
<!-- Company -->
<g id="node6" class="node">
<title>Company</title>
<ellipse fill="none" stroke="black" cx="591.06" cy="-359" rx="45.49" ry="18"/>
<text text-anchor="middle" x="591.06" y="-355.3" font-family="Times,serif" font-size="14.00">Company</text>
</g>
<!-- Company&#45;&gt;Action -->
<g id="edge12" class="edge">
<title>Company&#45;&gt;Action</title>
<path fill="none" stroke="#27a76e" d="M556.28,-338.96C533.45,-325.35 503.9,-305.51 482.06,-283 463.37,-263.74 447.31,-237.58 436.86,-218.43"/>
<polygon fill="#27a76e" stroke="#27a76e" points="556.03,-338.81 562.39,-347.75 560.35,-341.34 564.66,-343.86 564.66,-343.86 564.66,-343.86 560.35,-341.34 566.94,-339.98 556.03,-338.81 556.03,-338.81"/>
<polygon fill="#27a76e" stroke="#27a76e" points="436.89,-218.48 436.17,-207.54 434.54,-214.06 432.2,-209.65 432.2,-209.65 432.2,-209.65 434.54,-214.06 428.22,-211.76 436.89,-218.48 436.89,-218.48"/>
</g>
<!-- Company&#45;&gt;Project -->
<g id="edge13" class="edge">
<title>Company&#45;&gt;Project</title>
<path fill="none" stroke="#ac8d42" d="M573.78,-333.17C564.6,-319.97 553.34,-303.79 544.18,-290.62"/>
<polygon fill="#ac8d42" stroke="#ac8d42" points="573.61,-332.92 575.62,-343.7 576.46,-337.02 579.32,-341.13 579.32,-341.13 579.32,-341.13 576.46,-337.02 583.01,-338.56 573.61,-332.92 573.61,-332.92"/>
<polygon fill="#ac8d42" stroke="#ac8d42" points="544.21,-290.67 542.2,-279.89 541.36,-286.56 538.5,-282.46 538.5,-282.46 538.5,-282.46 541.36,-286.56 534.81,-285.03 544.21,-290.67 544.21,-290.67"/>
</g>
<!-- Company&#45;&gt;Report -->
<g id="edge10" class="edge">
<title>Company&#45;&gt;Report</title>
<path fill="none" stroke="#80c095" d="M607.56,-333.05C617.82,-315.16 629.06,-290.06 629.06,-266 629.06,-266 629.06,-266 629.06,-104 629.06,-75.26 613.12,-68.05 588.06,-54 553.38,-34.56 442.91,-25.16 380.35,-21.28"/>
<polygon fill="#80c095" stroke="#80c095" points="607.81,-332.65 598.8,-338.91 605.24,-336.93 602.66,-341.22 602.66,-341.22 602.66,-341.22 605.24,-336.93 606.52,-343.54 607.81,-332.65 607.81,-332.65"/>
<polygon fill="#80c095" stroke="#80c095" points="380.35,-21.28 370.64,-16.2 375.36,-20.99 370.37,-20.69 370.37,-20.69 370.37,-20.69 375.36,-20.99 370.1,-25.18 380.35,-21.28 380.35,-21.28"/>
<text text-anchor="middle" x="662.56" y="-188.3" font-family="Times,serif" font-size="14.00">sent_reports</text>
</g>
<!-- Company&#45;&gt;Report -->
<g id="edge11" class="edge">
<title>Company&#45;&gt;Report</title>
<path fill="none" stroke="#2824c6" d="M620.76,-337.12C628.91,-331.49 637.78,-325.45 646.06,-320 683.74,-295.17 732.06,-311.13 732.06,-266 732.06,-266 732.06,-266 732.06,-104 732.06,-32.8 484.26,-21.06 380.7,-19.26"/>
<polygon fill="#2824c6" stroke="#2824c6" points="620.8,-337.1 610.02,-339.1 616.69,-339.95 612.59,-342.8 612.59,-342.8 612.59,-342.8 616.69,-339.95 615.15,-346.5 620.8,-337.1 620.8,-337.1"/>
<polygon fill="#2824c6" stroke="#2824c6" points="380.85,-19.26 370.92,-14.61 375.85,-19.18 370.85,-19.11 370.85,-19.11 370.85,-19.11 375.85,-19.18 370.78,-23.61 380.85,-19.26 380.85,-19.26"/>
<text text-anchor="middle" x="777.56" y="-188.3" font-family="Times,serif" font-size="14.00">recieved_reports</text>
</g>
<!-- Company&#45;&gt;Technology -->
<g id="edge14" class="edge">
<title>Company&#45;&gt;Technology</title>
<path fill="none" stroke="#00e615" d="M590.17,-330.85C588.56,-307.67 584.11,-273.92 572.06,-247 567.21,-236.17 559.68,-225.64 552.27,-216.8"/>
<polygon fill="#00e615" stroke="#00e615" points="590.17,-330.7 586.24,-340.94 590.45,-335.69 590.74,-340.69 590.74,-340.69 590.74,-340.69 590.45,-335.69 595.23,-340.43 590.17,-330.7 590.17,-330.7"/>
<polygon fill="#00e615" stroke="#00e615" points="552.45,-217.01 549.23,-206.53 549.15,-213.26 545.85,-209.5 545.85,-209.5 545.85,-209.5 549.15,-213.26 542.47,-212.47 552.45,-217.01 552.45,-217.01"/>
</g>
<!-- Project&#45;&gt;Technology -->
<g id="edge15" class="edge">
<title>Project&#45;&gt;Technology</title>
<path fill="none" stroke="#44fbaa" d="M527.81,-237.05C527.97,-231.38 528.14,-225.4 528.3,-219.74"/>
<polygon fill="#44fbaa" stroke="#44fbaa" points="527.82,-236.82 523.04,-246.69 527.68,-241.81 527.54,-246.81 527.54,-246.81 527.54,-246.81 527.68,-241.81 532.04,-246.94 527.82,-236.82 527.82,-236.82"/>
<polygon fill="#44fbaa" stroke="#44fbaa" points="528.29,-220.02 533.07,-210.16 528.43,-215.03 528.58,-210.03 528.58,-210.03 528.58,-210.03 528.43,-215.03 524.08,-209.9 528.29,-220.02 528.29,-220.02"/>
</g>
<!-- Report&#45;&gt;User -->
<g id="edge16" class="edge">
<title>Report&#45;&gt;User</title>
<path fill="none" stroke="#c78544" d="M312.39,-41.12C305.61,-50.11 301.59,-60.38 308.06,-69 327.02,-94.28 363.23,-102.13 390.94,-104.19"/>
<polygon fill="#c78544" stroke="#c78544" points="312.33,-41.19 322.27,-36.58 315.6,-37.41 318.87,-33.63 318.87,-33.63 318.87,-33.63 315.6,-37.41 315.47,-30.69 312.33,-41.19 312.33,-41.19"/>
<polygon fill="#c78544" stroke="#c78544" points="390.73,-104.18 400.48,-109.21 395.72,-104.45 400.71,-104.71 400.71,-104.71 400.71,-104.71 395.72,-104.45 400.95,-100.22 390.73,-104.18 390.73,-104.18"/>
<text text-anchor="middle" x="326.06" y="-57.8" font-family="Times,serif" font-size="14.00">sender</text>
</g>
<!-- Report&#45;&gt;User -->
<g id="edge17" class="edge">
<title>Report&#45;&gt;User</title>
<path fill="none" stroke="#16830d" d="M348.46,-44.31C353.44,-52.82 359.75,-61.94 367.06,-69 375.68,-77.33 386.67,-84.43 396.93,-90"/>
<polygon fill="#16830d" stroke="#16830d" points="348.58,-44.52 347.7,-33.59 346.17,-40.14 343.76,-35.76 343.76,-35.76 343.76,-35.76 346.17,-40.14 339.82,-37.93 348.58,-44.52 348.58,-44.52"/>
<polygon fill="#16830d" stroke="#16830d" points="396.8,-89.93 403.63,-98.51 401.24,-92.22 405.69,-94.5 405.69,-94.5 405.69,-94.5 401.24,-92.22 407.75,-90.5 396.8,-89.93 396.8,-89.93"/>
<text text-anchor="middle" x="389.06" y="-57.8" font-family="Times,serif" font-size="14.00">reciever</text>
</g>
<!-- Technology&#45;&gt;User -->
<g id="edge18" class="edge">
<title>Technology&#45;&gt;User</title>
<path fill="none" stroke="#8871ef" d="M502.52,-168.67C486.79,-155.43 467.01,-138.79 451.8,-125.98"/>
<polygon fill="#8871ef" stroke="#8871ef" points="502.41,-168.57 507.16,-178.46 506.23,-171.79 510.06,-175.01 510.06,-175.01 510.06,-175.01 506.23,-171.79 512.96,-171.57 502.41,-168.57 502.41,-168.57"/>
<polygon fill="#8871ef" stroke="#8871ef" points="451.95,-126.11 447.2,-116.23 448.13,-122.89 444.3,-119.67 444.3,-119.67 444.3,-119.67 448.13,-122.89 441.4,-123.11 451.95,-126.11 451.95,-126.11"/>
</g>
<!-- User&#45;&gt;Report -->
<g id="edge19" class="edge">
<title>User&#45;&gt;Report</title>
<path fill="none" stroke="#f372ef" d="M423.26,-77.31C420.73,-69.09 416.89,-60.5 411.06,-54 401.56,-43.41 388.2,-35.78 375.38,-30.4"/>
<polygon fill="#f372ef" stroke="#f372ef" points="423.26,-77.3 421.38,-88.11 424.5,-82.15 425.74,-86.99 425.74,-86.99 425.74,-86.99 424.5,-82.15 430.1,-85.87 423.26,-77.3 423.26,-77.3"/>
<polygon fill="#f372ef" stroke="#f372ef" points="375.53,-30.46 367.81,-22.67 370.86,-28.66 366.2,-26.87 366.2,-26.87 366.2,-26.87 370.86,-28.66 364.58,-31.07 375.53,-30.46 375.53,-30.46"/>
<text text-anchor="middle" x="452.56" y="-57.8" font-family="Times,serif" font-size="14.00">sent_reports</text>
</g>
<!-- User&#45;&gt;Report -->
<g id="edge20" class="edge">
<title>User&#45;&gt;Report</title>
<path fill="none" stroke="#4dd7f4" d="M460.9,-92.38C481.64,-83.22 502.38,-69.44 490.06,-54 476.47,-36.98 420.42,-27.6 379.85,-22.94"/>
<polygon fill="#4dd7f4" stroke="#4dd7f4" points="461.05,-92.32 450.09,-91.98 456.43,-94.23 451.8,-96.14 451.8,-96.14 451.8,-96.14 456.43,-94.23 453.52,-100.3 461.05,-92.32 461.05,-92.32"/>
<polygon fill="#4dd7f4" stroke="#4dd7f4" points="380.11,-22.97 370.65,-17.41 375.14,-22.42 370.16,-21.88 370.16,-21.88 370.16,-21.88 375.14,-22.42 369.68,-26.35 380.11,-22.97 380.11,-22.97"/>
<text text-anchor="middle" x="538.56" y="-57.8" font-family="Times,serif" font-size="14.00">recieved_reports</text>
</g>
</g>
</svg>
