<?xml version="1.0" encoding="UTF-8" standalone="no"?>
<!DOCTYPE svg PUBLIC "-//W3C//DTD SVG 1.1//EN"
 "http://www.w3.org/Graphics/SVG/1.1/DTD/svg11.dtd">
<!-- Generated by graphviz version 7.1.0 (0)
 -->
<!-- Title: models_diagram Pages: 1 -->
<svg width="1267pt" height="1034pt"
 viewBox="0.00 0.00 1266.84 1034.00" xmlns="http://www.w3.org/2000/svg" xmlns:xlink="http://www.w3.org/1999/xlink">
<g id="graph0" class="graph" transform="scale(1 1) rotate(0) translate(4 1030)">
<title>models_diagram</title>
<polygon fill="none" stroke="none" points="-4,4 -4,-1030 1262.84,-1030 1262.84,4 -4,4"/>
<!-- _diagram_info -->
<g id="node1" class="node">
<title>_diagram_info</title>
<text text-anchor="start" x="218.5" y="-944.6" font-family="Times,serif" font-size="13.00">Models diagram</text>
<text text-anchor="start" x="218.5" y="-930.6" font-family="Times,serif" font-size="13.00">Date: Jun 08 2023 &#45; 16:00</text>
<text text-anchor="start" x="218.5" y="-916.6" font-family="Times,serif" font-size="13.00">Migration version: 20230510102025</text>
<text text-anchor="start" x="218.5" y="-902.6" font-family="Times,serif" font-size="13.00">Generated by RailRoady 1.6.0</text>
<text text-anchor="start" x="218.5" y="-888.6" font-family="Times,serif" font-size="13.00">http://railroady.prestonlee.com</text>
</g>
<!-- Action -->
<g id="node2" class="node">
<title>Action</title>
<path fill="none" stroke="black" d="M462,-421.5C462,-421.5 663,-421.5 663,-421.5 669,-421.5 675,-427.5 675,-433.5 675,-433.5 675,-515.5 675,-515.5 675,-521.5 669,-527.5 663,-527.5 663,-527.5 462,-527.5 462,-527.5 456,-527.5 450,-521.5 450,-515.5 450,-515.5 450,-433.5 450,-433.5 450,-427.5 456,-421.5 462,-421.5"/>
<text text-anchor="middle" x="562.5" y="-512.3" font-family="Times,serif" font-size="14.00">Action</text>
<polyline fill="none" stroke="black" points="450,-504.5 675,-504.5"/>
<text text-anchor="start" x="458" y="-489.3" font-family="Times,serif" font-size="14.00">id :bigint</text>
<text text-anchor="start" x="458" y="-474.3" font-family="Times,serif" font-size="14.00">name :character varying</text>
<text text-anchor="start" x="458" y="-459.3" font-family="Times,serif" font-size="14.00">user_id :character varying</text>
<text text-anchor="start" x="458" y="-444.3" font-family="Times,serif" font-size="14.00">time :timestamp(6) without time zone</text>
<text text-anchor="start" x="458" y="-429.3" font-family="Times,serif" font-size="14.00">description :text</text>
</g>
<!-- User -->
<g id="node10" class="node">
<title>User</title>
<path fill="none" stroke="black" d="M423,-158.5C423,-158.5 608,-158.5 608,-158.5 614,-158.5 620,-164.5 620,-170.5 620,-170.5 620,-357.5 620,-357.5 620,-363.5 614,-369.5 608,-369.5 608,-369.5 423,-369.5 423,-369.5 417,-369.5 411,-363.5 411,-357.5 411,-357.5 411,-170.5 411,-170.5 411,-164.5 417,-158.5 423,-158.5"/>
<text text-anchor="middle" x="515.5" y="-354.3" font-family="Times,serif" font-size="14.00">User</text>
<polyline fill="none" stroke="black" points="411,-346.5 620,-346.5"/>
<text text-anchor="start" x="419" y="-331.3" font-family="Times,serif" font-size="14.00">username :character varying</text>
<text text-anchor="start" x="419" y="-316.3" font-family="Times,serif" font-size="14.00">password_digest :character varying</text>
<text text-anchor="start" x="419" y="-301.3" font-family="Times,serif" font-size="14.00">email :character varying</text>
<text text-anchor="start" x="419" y="-286.3" font-family="Times,serif" font-size="14.00">totp_secret :character varying</text>
<text text-anchor="start" x="419" y="-271.3" font-family="Times,serif" font-size="14.00">type :character varying</text>
<text text-anchor="start" x="419" y="-256.3" font-family="Times,serif" font-size="14.00">first_name :character varying</text>
<text text-anchor="start" x="419" y="-241.3" font-family="Times,serif" font-size="14.00">last_name :character varying</text>
<text text-anchor="start" x="419" y="-226.3" font-family="Times,serif" font-size="14.00">bio :text</text>
<text text-anchor="start" x="419" y="-211.3" font-family="Times,serif" font-size="14.00">propic :bytea</text>
<text text-anchor="start" x="419" y="-196.3" font-family="Times,serif" font-size="14.00">rating :double precision</text>
<text text-anchor="start" x="419" y="-181.3" font-family="Times,serif" font-size="14.00">status :character varying</text>
<text text-anchor="start" x="419" y="-166.3" font-family="Times,serif" font-size="14.00">name :character varying</text>
</g>
<!-- Action&#45;&gt;User -->
<g id="edge1" class="edge">
<title>Action&#45;&gt;User</title>
<path fill="none" stroke="#6098fe" d="M548.65,-412.05C546.26,-401.47 543.72,-390.18 541.14,-378.74"/>
<polygon fill="#6098fe" stroke="#6098fe" points="548.62,-411.94 546.43,-422.68 549.72,-416.82 550.82,-421.69 550.82,-421.69 550.82,-421.69 549.72,-416.82 555.21,-420.7 548.62,-411.94 548.62,-411.94"/>
<polygon fill="#6098fe" stroke="#6098fe" points="541.16,-378.85 543.36,-368.11 540.07,-373.98 538.97,-369.1 538.97,-369.1 538.97,-369.1 540.07,-373.98 534.58,-370.09 541.16,-378.85 541.16,-378.85"/>
</g>
<!-- Admin -->
<g id="node3" class="node">
<title>Admin</title>
<path fill="none" stroke="black" d="M12,-565.5C12,-565.5 197,-565.5 197,-565.5 203,-565.5 209,-571.5 209,-577.5 209,-577.5 209,-764.5 209,-764.5 209,-770.5 203,-776.5 197,-776.5 197,-776.5 12,-776.5 12,-776.5 6,-776.5 0,-770.5 0,-764.5 0,-764.5 0,-577.5 0,-577.5 0,-571.5 6,-565.5 12,-565.5"/>
<text text-anchor="middle" x="104.5" y="-761.3" font-family="Times,serif" font-size="14.00">Admin</text>
<polyline fill="none" stroke="black" points="0,-753.5 209,-753.5"/>
<text text-anchor="start" x="8" y="-738.3" font-family="Times,serif" font-size="14.00">username :character varying</text>
<text text-anchor="start" x="8" y="-723.3" font-family="Times,serif" font-size="14.00">password_digest :character varying</text>
<text text-anchor="start" x="8" y="-708.3" font-family="Times,serif" font-size="14.00">email :character varying</text>
<text text-anchor="start" x="8" y="-693.3" font-family="Times,serif" font-size="14.00">totp_secret :character varying</text>
<text text-anchor="start" x="8" y="-678.3" font-family="Times,serif" font-size="14.00">type :character varying</text>
<text text-anchor="start" x="8" y="-663.3" font-family="Times,serif" font-size="14.00">first_name :character varying</text>
<text text-anchor="start" x="8" y="-648.3" font-family="Times,serif" font-size="14.00">last_name :character varying</text>
<text text-anchor="start" x="8" y="-633.3" font-family="Times,serif" font-size="14.00">bio :text</text>
<text text-anchor="start" x="8" y="-618.3" font-family="Times,serif" font-size="14.00">propic :bytea</text>
<text text-anchor="start" x="8" y="-603.3" font-family="Times,serif" font-size="14.00">rating :double precision</text>
<text text-anchor="start" x="8" y="-588.3" font-family="Times,serif" font-size="14.00">status :character varying</text>
<text text-anchor="start" x="8" y="-573.3" font-family="Times,serif" font-size="14.00">name :character varying</text>
</g>
<!-- Admin&#45;&gt;Action -->
<g id="edge4" class="edge">
<title>Admin&#45;&gt;Action</title>
<path fill="none" stroke="#b4a1f5" d="M217.7,-621.93C285.69,-593.05 372.17,-556.33 441.51,-526.88"/>
<polygon fill="#b4a1f5" stroke="#b4a1f5" points="217.92,-621.83 206.95,-621.6 213.32,-623.79 208.71,-625.74 208.71,-625.74 208.71,-625.74 213.32,-623.79 210.47,-629.89 217.92,-621.83 217.92,-621.83"/>
<polygon fill="#b4a1f5" stroke="#b4a1f5" points="441.1,-527.05 452.07,-527.29 445.71,-525.1 450.31,-523.14 450.31,-523.14 450.31,-523.14 445.71,-525.1 448.55,-519 441.1,-527.05 441.1,-527.05"/>
</g>
<!-- Report -->
<g id="node8" class="node">
<title>Report</title>
<path fill="none" stroke="black" d="M310,-0.5C310,-0.5 511,-0.5 511,-0.5 517,-0.5 523,-6.5 523,-12.5 523,-12.5 523,-94.5 523,-94.5 523,-100.5 517,-106.5 511,-106.5 511,-106.5 310,-106.5 310,-106.5 304,-106.5 298,-100.5 298,-94.5 298,-94.5 298,-12.5 298,-12.5 298,-6.5 304,-0.5 310,-0.5"/>
<text text-anchor="middle" x="410.5" y="-91.3" font-family="Times,serif" font-size="14.00">Report</text>
<polyline fill="none" stroke="black" points="298,-83.5 523,-83.5"/>
<text text-anchor="start" x="306" y="-68.3" font-family="Times,serif" font-size="14.00">id :bigint</text>
<text text-anchor="start" x="306" y="-53.3" font-family="Times,serif" font-size="14.00">to_id :character varying</text>
<text text-anchor="start" x="306" y="-38.3" font-family="Times,serif" font-size="14.00">from_id :character varying</text>
<text text-anchor="start" x="306" y="-23.3" font-family="Times,serif" font-size="14.00">time :timestamp(6) without time zone</text>
<text text-anchor="start" x="306" y="-8.3" font-family="Times,serif" font-size="14.00">description :text</text>
</g>
<!-- Admin&#45;&gt;Report -->
<g id="edge2" class="edge">
<title>Admin&#45;&gt;Report</title>
<path fill="none" stroke="#34d514" d="M66.25,-555.99C32.37,-431.03 4,-233.87 117.5,-125 142.43,-101.09 219.59,-83.09 288.47,-71.26"/>
<polygon fill="#34d514" stroke="#34d514" points="66.25,-555.97 64.57,-566.81 67.58,-560.79 68.91,-565.61 68.91,-565.61 68.91,-565.61 67.58,-560.79 73.25,-564.41 66.25,-555.97 66.25,-555.97"/>
<polygon fill="#34d514" stroke="#34d514" points="288.26,-71.3 298.87,-74.07 293.19,-70.47 298.13,-69.64 298.13,-69.64 298.13,-69.64 293.19,-70.47 297.38,-65.2 288.26,-71.3 288.26,-71.3"/>
<text text-anchor="middle" x="72" y="-391.8" font-family="Times,serif" font-size="14.00">sent_reports</text>
</g>
<!-- Admin&#45;&gt;Report -->
<g id="edge3" class="edge">
<title>Admin&#45;&gt;Report</title>
<path fill="none" stroke="#8c7ddd" d="M109.75,-555.76C113.68,-504.09 120.54,-442.51 132.5,-388 159.01,-267.19 137.25,-213.65 223.5,-125 241.52,-106.48 264.89,-92.77 288.96,-82.63"/>
<polygon fill="#8c7ddd" stroke="#8c7ddd" points="109.76,-555.65 104.54,-565.29 109.39,-560.64 109.02,-565.62 109.02,-565.62 109.02,-565.62 109.39,-560.64 113.51,-565.95 109.76,-555.65 109.76,-555.65"/>
<polygon fill="#8c7ddd" stroke="#8c7ddd" points="288.93,-82.64 299.89,-83.1 293.57,-80.78 298.21,-78.92 298.21,-78.92 298.21,-78.92 293.57,-80.78 296.54,-74.74 288.93,-82.64 288.93,-82.64"/>
<text text-anchor="middle" x="178" y="-391.8" font-family="Times,serif" font-size="14.00">recieved_reports</text>
</g>
<!-- ApplicationRecord -->
<g id="node4" class="node">
<title>ApplicationRecord</title>
<ellipse fill="none" stroke="black" cx="1181.5" cy="-920" rx="77.19" ry="18"/>
<text text-anchor="middle" x="1181.5" y="-916.3" font-family="Times,serif" font-size="14.00">ApplicationRecord</text>
</g>
<!-- Codemonkey -->
<g id="node5" class="node">
<title>Codemonkey</title>
<path fill="none" stroke="black" d="M455,-814.5C455,-814.5 640,-814.5 640,-814.5 646,-814.5 652,-820.5 652,-826.5 652,-826.5 652,-1013.5 652,-1013.5 652,-1019.5 646,-1025.5 640,-1025.5 640,-1025.5 455,-1025.5 455,-1025.5 449,-1025.5 443,-1019.5 443,-1013.5 443,-1013.5 443,-826.5 443,-826.5 443,-820.5 449,-814.5 455,-814.5"/>
<text text-anchor="middle" x="547.5" y="-1010.3" font-family="Times,serif" font-size="14.00">Codemonkey</text>
<polyline fill="none" stroke="black" points="443,-1002.5 652,-1002.5"/>
<text text-anchor="start" x="451" y="-987.3" font-family="Times,serif" font-size="14.00">username :character varying</text>
<text text-anchor="start" x="451" y="-972.3" font-family="Times,serif" font-size="14.00">password_digest :character varying</text>
<text text-anchor="start" x="451" y="-957.3" font-family="Times,serif" font-size="14.00">email :character varying</text>
<text text-anchor="start" x="451" y="-942.3" font-family="Times,serif" font-size="14.00">totp_secret :character varying</text>
<text text-anchor="start" x="451" y="-927.3" font-family="Times,serif" font-size="14.00">type :character varying</text>
<text text-anchor="start" x="451" y="-912.3" font-family="Times,serif" font-size="14.00">first_name :character varying</text>
<text text-anchor="start" x="451" y="-897.3" font-family="Times,serif" font-size="14.00">last_name :character varying</text>
<text text-anchor="start" x="451" y="-882.3" font-family="Times,serif" font-size="14.00">bio :text</text>
<text text-anchor="start" x="451" y="-867.3" font-family="Times,serif" font-size="14.00">propic :bytea</text>
<text text-anchor="start" x="451" y="-852.3" font-family="Times,serif" font-size="14.00">rating :double precision</text>
<text text-anchor="start" x="451" y="-837.3" font-family="Times,serif" font-size="14.00">status :character varying</text>
<text text-anchor="start" x="451" y="-822.3" font-family="Times,serif" font-size="14.00">name :character varying</text>
</g>
<!-- Codemonkey&#45;&gt;Action -->
<g id="edge7" class="edge">
<title>Codemonkey&#45;&gt;Action</title>
<path fill="none" stroke="#9374bd" d="M551.36,-804.82C554.24,-719.58 558.07,-606.37 560.41,-537.33"/>
<polygon fill="#9374bd" stroke="#9374bd" points="551.36,-804.74 546.53,-814.59 551.2,-809.74 551.03,-814.74 551.03,-814.74 551.03,-814.74 551.2,-809.74 555.52,-814.89 551.36,-804.74 551.36,-804.74"/>
<polygon fill="#9374bd" stroke="#9374bd" points="560.4,-537.47 565.24,-527.63 560.57,-532.47 560.74,-527.48 560.74,-527.48 560.74,-527.48 560.57,-532.47 556.24,-527.32 560.4,-537.47 560.4,-537.47"/>
</g>
<!-- Project -->
<g id="node7" class="node">
<title>Project</title>
<path fill="none" stroke="black" d="M675.5,-573C675.5,-573 941.5,-573 941.5,-573 947.5,-573 953.5,-579 953.5,-585 953.5,-585 953.5,-757 953.5,-757 953.5,-763 947.5,-769 941.5,-769 941.5,-769 675.5,-769 675.5,-769 669.5,-769 663.5,-763 663.5,-757 663.5,-757 663.5,-585 663.5,-585 663.5,-579 669.5,-573 675.5,-573"/>
<text text-anchor="middle" x="808.5" y="-753.8" font-family="Times,serif" font-size="14.00">Project</text>
<polyline fill="none" stroke="black" points="663.5,-746 953.5,-746"/>
<text text-anchor="start" x="671.5" y="-730.8" font-family="Times,serif" font-size="14.00">id :bigint</text>
<text text-anchor="start" x="671.5" y="-715.8" font-family="Times,serif" font-size="14.00">title :character varying</text>
<text text-anchor="start" x="671.5" y="-700.8" font-family="Times,serif" font-size="14.00">description :text</text>
<text text-anchor="start" x="671.5" y="-685.8" font-family="Times,serif" font-size="14.00">suggestion_time :timestamp(6) without time zone</text>
<text text-anchor="start" x="671.5" y="-670.8" font-family="Times,serif" font-size="14.00">start_time :timestamp(6) without time zone</text>
<text text-anchor="start" x="671.5" y="-655.8" font-family="Times,serif" font-size="14.00">end_time :timestamp(6) without time zone</text>
<text text-anchor="start" x="671.5" y="-640.8" font-family="Times,serif" font-size="14.00">rating :double precision</text>
<text text-anchor="start" x="671.5" y="-625.8" font-family="Times,serif" font-size="14.00">comment :text</text>
<text text-anchor="start" x="671.5" y="-610.8" font-family="Times,serif" font-size="14.00">status :character varying</text>
<text text-anchor="start" x="671.5" y="-595.8" font-family="Times,serif" font-size="14.00">codemonkey_id :character varying</text>
<text text-anchor="start" x="671.5" y="-580.8" font-family="Times,serif" font-size="14.00">company_id :character varying</text>
</g>
<!-- Codemonkey&#45;&gt;Project -->
<g id="edge8" class="edge">
<title>Codemonkey&#45;&gt;Project</title>
<path fill="none" stroke="#c78a1d" d="M658.94,-813.54C672.27,-800.92 685.87,-788.06 699.16,-775.47"/>
<polygon fill="#c78a1d" stroke="#c78a1d" points="659.04,-813.44 648.69,-817.05 655.41,-816.88 651.78,-820.31 651.78,-820.31 651.78,-820.31 655.41,-816.88 654.87,-823.58 659.04,-813.44 659.04,-813.44"/>
<polygon fill="#c78a1d" stroke="#c78a1d" points="698.82,-775.79 709.18,-772.19 702.46,-772.36 706.09,-768.92 706.09,-768.92 706.09,-768.92 702.46,-772.36 702.99,-765.65 698.82,-775.79 698.82,-775.79"/>
</g>
<!-- Codemonkey&#45;&gt;Report -->
<g id="edge5" class="edge">
<title>Codemonkey&#45;&gt;Report</title>
<path fill="none" stroke="#bee082" d="M434.42,-814.45C434.11,-814.3 433.81,-814.15 433.5,-814 390.19,-792.79 367.42,-821.51 326.5,-796 268.93,-760.11 237.5,-739.84 237.5,-672 237.5,-672 237.5,-672 237.5,-263 237.5,-202.31 281.45,-149.83 325.05,-112.7"/>
<polygon fill="#bee082" stroke="#bee082" points="434.38,-814.43 441.08,-823.12 438.79,-816.79 443.2,-819.15 443.2,-819.15 443.2,-819.15 438.79,-816.79 445.32,-815.18 434.38,-814.43 434.38,-814.43"/>
<polygon fill="#bee082" stroke="#bee082" points="324.92,-112.81 335.48,-109.87 328.76,-109.61 332.6,-106.41 332.6,-106.41 332.6,-106.41 328.76,-109.61 329.72,-102.95 324.92,-112.81 324.92,-112.81"/>
<text text-anchor="middle" x="271" y="-470.8" font-family="Times,serif" font-size="14.00">sent_reports</text>
</g>
<!-- Codemonkey&#45;&gt;Report -->
<g id="edge6" class="edge">
<title>Codemonkey&#45;&gt;Report</title>
<path fill="none" stroke="#f6ebe2" d="M436.16,-814.29C387.15,-763.39 340.5,-706 340.5,-672 340.5,-672 340.5,-672 340.5,-263 340.5,-211.35 360.04,-156.07 378.48,-115.42"/>
<polygon fill="#f6ebe2" stroke="#f6ebe2" points="436.13,-814.25 439.86,-824.56 439.61,-817.84 443.09,-821.43 443.09,-821.43 443.09,-821.43 439.61,-817.84 446.32,-818.29 436.13,-814.25 436.13,-814.25"/>
<polygon fill="#f6ebe2" stroke="#f6ebe2" points="378.43,-115.52 386.72,-108.34 380.53,-110.99 382.63,-106.45 382.63,-106.45 382.63,-106.45 380.53,-110.99 378.55,-104.56 378.43,-115.52 378.43,-115.52"/>
<text text-anchor="middle" x="386" y="-470.8" font-family="Times,serif" font-size="14.00">recieved_reports</text>
</g>
<!-- Technology -->
<g id="node9" class="node">
<title>Technology</title>
<path fill="none" stroke="black" d="M705.5,-421.5C705.5,-421.5 971.5,-421.5 971.5,-421.5 977.5,-421.5 983.5,-427.5 983.5,-433.5 983.5,-433.5 983.5,-515.5 983.5,-515.5 983.5,-521.5 977.5,-527.5 971.5,-527.5 971.5,-527.5 705.5,-527.5 705.5,-527.5 699.5,-527.5 693.5,-521.5 693.5,-515.5 693.5,-515.5 693.5,-433.5 693.5,-433.5 693.5,-427.5 699.5,-421.5 705.5,-421.5"/>
<text text-anchor="middle" x="838.5" y="-512.3" font-family="Times,serif" font-size="14.00">Technology</text>
<polyline fill="none" stroke="black" points="693.5,-504.5 983.5,-504.5"/>
<text text-anchor="start" x="701.5" y="-489.3" font-family="Times,serif" font-size="14.00">id :bigint</text>
<text text-anchor="start" x="701.5" y="-474.3" font-family="Times,serif" font-size="14.00">name :character varying</text>
<text text-anchor="start" x="701.5" y="-459.3" font-family="Times,serif" font-size="14.00">suggestion_time :timestamp(6) without time zone</text>
<text text-anchor="start" x="701.5" y="-444.3" font-family="Times,serif" font-size="14.00">approved :boolean</text>
<text text-anchor="start" x="701.5" y="-429.3" font-family="Times,serif" font-size="14.00">rejected :boolean</text>
</g>
<!-- Codemonkey&#45;&gt;Technology -->
<g id="edge9" class="edge">
<title>Codemonkey&#45;&gt;Technology</title>
<path fill="none" stroke="#a32a9e" d="M571.46,-805.23C592.09,-716.2 623.36,-601.54 654.5,-565 664.9,-552.8 677.36,-542.11 690.82,-532.79"/>
<polygon fill="#a32a9e" stroke="#a32a9e" points="571.49,-805.11 564.87,-813.85 570.37,-809.98 569.25,-814.86 569.25,-814.86 569.25,-814.86 570.37,-809.98 573.64,-815.87 571.49,-805.11 571.49,-805.11"/>
<polygon fill="#a32a9e" stroke="#a32a9e" points="690.52,-532.99 701.34,-531.21 694.68,-530.23 698.85,-527.46 698.85,-527.46 698.85,-527.46 694.68,-530.23 696.36,-523.71 690.52,-532.99 690.52,-532.99"/>
</g>
<!-- Company -->
<g id="node6" class="node">
<title>Company</title>
<path fill="none" stroke="black" d="M889,-814.5C889,-814.5 1074,-814.5 1074,-814.5 1080,-814.5 1086,-820.5 1086,-826.5 1086,-826.5 1086,-1013.5 1086,-1013.5 1086,-1019.5 1080,-1025.5 1074,-1025.5 1074,-1025.5 889,-1025.5 889,-1025.5 883,-1025.5 877,-1019.5 877,-1013.5 877,-1013.5 877,-826.5 877,-826.5 877,-820.5 883,-814.5 889,-814.5"/>
<text text-anchor="middle" x="981.5" y="-1010.3" font-family="Times,serif" font-size="14.00">Company</text>
<polyline fill="none" stroke="black" points="877,-1002.5 1086,-1002.5"/>
<text text-anchor="start" x="885" y="-987.3" font-family="Times,serif" font-size="14.00">username :character varying</text>
<text text-anchor="start" x="885" y="-972.3" font-family="Times,serif" font-size="14.00">password_digest :character varying</text>
<text text-anchor="start" x="885" y="-957.3" font-family="Times,serif" font-size="14.00">email :character varying</text>
<text text-anchor="start" x="885" y="-942.3" font-family="Times,serif" font-size="14.00">totp_secret :character varying</text>
<text text-anchor="start" x="885" y="-927.3" font-family="Times,serif" font-size="14.00">type :character varying</text>
<text text-anchor="start" x="885" y="-912.3" font-family="Times,serif" font-size="14.00">first_name :character varying</text>
<text text-anchor="start" x="885" y="-897.3" font-family="Times,serif" font-size="14.00">last_name :character varying</text>
<text text-anchor="start" x="885" y="-882.3" font-family="Times,serif" font-size="14.00">bio :text</text>
<text text-anchor="start" x="885" y="-867.3" font-family="Times,serif" font-size="14.00">propic :bytea</text>
<text text-anchor="start" x="885" y="-852.3" font-family="Times,serif" font-size="14.00">rating :double precision</text>
<text text-anchor="start" x="885" y="-837.3" font-family="Times,serif" font-size="14.00">status :character varying</text>
<text text-anchor="start" x="885" y="-822.3" font-family="Times,serif" font-size="14.00">name :character varying</text>
</g>
<!-- Company&#45;&gt;Action -->
<g id="edge12" class="edge">
<title>Company&#45;&gt;Action</title>
<path fill="none" stroke="#009840" d="M867.84,-895.36C797.33,-875.13 709.91,-839.09 654.5,-777 622.7,-741.37 591.5,-614.18 574.86,-536.84"/>
<polygon fill="#009840" stroke="#009840" points="867.6,-895.29 876.02,-902.32 872.42,-896.64 877.23,-897.99 877.23,-897.99 877.23,-897.99 872.42,-896.64 878.45,-893.65 867.6,-895.29 867.6,-895.29"/>
<polygon fill="#009840" stroke="#009840" points="574.89,-536.98 577.21,-526.26 573.85,-532.09 572.81,-527.2 572.81,-527.2 572.81,-527.2 573.85,-532.09 568.4,-528.14 574.89,-536.98 574.89,-536.98"/>
</g>
<!-- Company&#45;&gt;Project -->
<g id="edge13" class="edge">
<title>Company&#45;&gt;Project</title>
<path fill="none" stroke="#546f93" d="M902.89,-806.77C895.92,-796.81 888.87,-786.74 881.93,-776.84"/>
<polygon fill="#546f93" stroke="#546f93" points="902.65,-806.42 904.7,-817.19 905.51,-810.51 908.38,-814.61 908.38,-814.61 908.38,-814.61 905.51,-810.51 912.07,-812.03 902.65,-806.42 902.65,-806.42"/>
<polygon fill="#546f93" stroke="#546f93" points="882.14,-777.14 880.09,-766.36 879.27,-773.04 876.4,-768.95 876.4,-768.95 876.4,-768.95 879.27,-773.04 872.72,-771.53 882.14,-777.14 882.14,-777.14"/>
</g>
<!-- Company&#45;&gt;Report -->
<g id="edge10" class="edge">
<title>Company&#45;&gt;Report</title>
<path fill="none" stroke="#c7367a" d="M1006.45,-805.06C1013.6,-763.41 1019.5,-715.77 1019.5,-672 1019.5,-672 1019.5,-672 1019.5,-263 1019.5,-161.08 710.36,-98.55 532.59,-71.02"/>
<polygon fill="#c7367a" stroke="#c7367a" points="1006.49,-804.83 1000.32,-813.9 1005.62,-809.76 1004.75,-814.68 1004.75,-814.68 1004.75,-814.68 1005.62,-809.76 1009.19,-815.46 1006.49,-804.83 1006.49,-804.83"/>
<polygon fill="#c7367a" stroke="#c7367a" points="532.79,-71.05 523.59,-65.09 527.85,-70.3 522.91,-69.54 522.91,-69.54 522.91,-69.54 527.85,-70.3 522.23,-73.99 532.79,-71.05 532.79,-71.05"/>
<text text-anchor="middle" x="1053" y="-470.8" font-family="Times,serif" font-size="14.00">sent_reports</text>
</g>
<!-- Company&#45;&gt;Report -->
<g id="edge11" class="edge">
<title>Company&#45;&gt;Report</title>
<path fill="none" stroke="#699cfc" d="M1077.58,-806.19C1102.51,-766.37 1122.5,-719.6 1122.5,-672 1122.5,-672 1122.5,-672 1122.5,-263 1122.5,-201.82 1086.7,-188.21 1033.5,-158 949.98,-110.57 688.96,-79.58 532.53,-64.75"/>
<polygon fill="#699cfc" stroke="#699cfc" points="1077.6,-806.17 1068.41,-812.15 1074.9,-810.37 1072.19,-814.58 1072.19,-814.58 1072.19,-814.58 1074.9,-810.37 1075.98,-817.01 1077.6,-806.17 1077.6,-806.17"/>
<polygon fill="#699cfc" stroke="#699cfc" points="532.8,-64.77 523.27,-59.36 527.82,-64.31 522.85,-63.84 522.85,-63.84 522.85,-63.84 527.82,-64.31 522.43,-68.32 532.8,-64.77 532.8,-64.77"/>
<text text-anchor="middle" x="1168" y="-470.8" font-family="Times,serif" font-size="14.00">recieved_reports</text>
</g>
<!-- Company&#45;&gt;Technology -->
<g id="edge14" class="edge">
<title>Company&#45;&gt;Technology</title>
<path fill="none" stroke="#6d3fcf" d="M999.5,-804.9C1005.4,-731.97 1002.22,-637.77 962.5,-565 956.26,-553.56 947.85,-543.22 938.34,-533.97"/>
<polygon fill="#6d3fcf" stroke="#6d3fcf" points="999.52,-804.63 994.17,-814.2 999.08,-809.61 998.65,-814.59 998.65,-814.59 998.65,-814.59 999.08,-809.61 1003.13,-814.98 999.52,-804.63 999.52,-804.63"/>
<polygon fill="#6d3fcf" stroke="#6d3fcf" points="938.59,-534.2 934.28,-524.12 934.91,-530.82 931.23,-527.43 931.23,-527.43 931.23,-527.43 934.91,-530.82 928.18,-530.74 938.59,-534.2 938.59,-534.2"/>
</g>
<!-- Project&#45;&gt;Technology -->
<g id="edge15" class="edge">
<title>Project&#45;&gt;Technology</title>
<path fill="none" stroke="#9c26d1" d="M824.94,-563.42C826.33,-554.41 827.7,-545.51 829.01,-537.03"/>
<polygon fill="#9c26d1" stroke="#9c26d1" points="824.98,-563.15 819.01,-572.35 824.22,-568.09 823.46,-573.03 823.46,-573.03 823.46,-573.03 824.22,-568.09 827.9,-573.72 824.98,-563.15 824.98,-563.15"/>
<polygon fill="#9c26d1" stroke="#9c26d1" points="828.99,-537.17 834.96,-527.97 829.75,-532.23 830.51,-527.28 830.51,-527.28 830.51,-527.28 829.75,-532.23 826.07,-526.6 828.99,-537.17 828.99,-537.17"/>
</g>
<!-- Report&#45;&gt;User -->
<g id="edge16" class="edge">
<title>Report&#45;&gt;User</title>
<path fill="none" stroke="#12043e" d="M379.39,-115.8C378.42,-124.03 379.13,-132.29 382.5,-140 388.13,-152.88 395.85,-165.01 404.75,-176.26"/>
<polygon fill="#12043e" stroke="#12043e" points="379.36,-116 385.68,-107.05 380.31,-111.1 381.26,-106.19 381.26,-106.19 381.26,-106.19 380.31,-111.1 376.85,-105.33 379.36,-116 379.36,-116"/>
<polygon fill="#12043e" stroke="#12043e" points="404.71,-176.21 407.63,-186.78 407.9,-180.06 411.1,-183.9 411.1,-183.9 411.1,-183.9 407.9,-180.06 414.56,-181.03 404.71,-176.21 404.71,-176.21"/>
<text text-anchor="middle" x="400.5" y="-128.8" font-family="Times,serif" font-size="14.00">sender</text>
</g>
<!-- Report&#45;&gt;User -->
<g id="edge17" class="edge">
<title>Report&#45;&gt;User</title>
<path fill="none" stroke="#e7a67d" d="M431,-115.59C434.27,-123.9 437.8,-132.23 441.5,-140 443.07,-143.29 444.69,-146.6 446.37,-149.92"/>
<polygon fill="#e7a67d" stroke="#e7a67d" points="431.01,-115.59 431.64,-104.65 429.22,-110.92 427.44,-106.25 427.44,-106.25 427.44,-106.25 429.22,-110.92 423.23,-107.86 431.01,-115.59 431.01,-115.59"/>
<polygon fill="#e7a67d" stroke="#e7a67d" points="446.34,-149.85 446.93,-160.8 448.63,-154.3 450.93,-158.74 450.93,-158.74 450.93,-158.74 448.63,-154.3 454.92,-156.68 446.34,-149.85 446.34,-149.85"/>
<text text-anchor="middle" x="463.5" y="-128.8" font-family="Times,serif" font-size="14.00">reciever</text>
</g>
<!-- Technology&#45;&gt;User -->
<g id="edge18" class="edge">
<title>Technology&#45;&gt;User</title>
<path fill="none" stroke="#112728" d="M750.03,-416.39C712.35,-392.07 667.95,-363.41 627.98,-337.61"/>
<polygon fill="#112728" stroke="#112728" points="749.84,-416.27 755.8,-425.47 754.04,-418.98 758.24,-421.69 758.24,-421.69 758.24,-421.69 754.04,-418.98 760.68,-417.91 749.84,-416.27 749.84,-416.27"/>
<polygon fill="#112728" stroke="#112728" points="628.19,-337.74 622.22,-328.54 623.98,-335.03 619.78,-332.32 619.78,-332.32 619.78,-332.32 623.98,-335.03 617.34,-336.1 628.19,-337.74 628.19,-337.74"/>
</g>
<!-- User&#45;&gt;Report -->
<g id="edge19" class="edge">
<title>User&#45;&gt;Report</title>
<path fill="none" stroke="#bd9acf" d="M496.74,-149.43C493.56,-140.92 489.85,-132.68 485.5,-125 483.36,-121.22 480.96,-117.53 478.35,-113.94"/>
<polygon fill="#bd9acf" stroke="#bd9acf" points="496.7,-149.29 495.74,-160.22 498.34,-154.02 499.99,-158.74 499.99,-158.74 499.99,-158.74 498.34,-154.02 504.24,-157.26 496.7,-149.29 496.7,-149.29"/>
<polygon fill="#bd9acf" stroke="#bd9acf" points="478.5,-114.13 475.9,-103.47 475.43,-110.18 472.35,-106.24 472.35,-106.24 472.35,-106.24 475.43,-110.18 468.8,-109 478.5,-114.13 478.5,-114.13"/>
<text text-anchor="middle" x="525" y="-128.8" font-family="Times,serif" font-size="14.00">sent_reports</text>
</g>
<!-- User&#45;&gt;Report -->
<g id="edge20" class="edge">
<title>User&#45;&gt;Report</title>
<path fill="none" stroke="#313d12" d="M570.78,-148.88C569.88,-140.57 567.3,-132.51 562.5,-125 554.47,-112.43 543.57,-102.07 531.25,-93.53"/>
<polygon fill="#313d12" stroke="#313d12" points="570.78,-148.74 566.59,-158.87 570.93,-153.74 571.08,-158.73 571.08,-158.73 571.08,-158.73 570.93,-153.74 575.58,-158.6 570.78,-148.74 570.78,-148.74"/>
<polygon fill="#313d12" stroke="#313d12" points="531.37,-93.61 525.42,-84.4 527.17,-90.9 522.97,-88.18 522.97,-88.18 522.97,-88.18 527.17,-90.9 520.53,-91.96 531.37,-93.61 531.37,-93.61"/>
<text text-anchor="middle" x="614" y="-128.8" font-family="Times,serif" font-size="14.00">recieved_reports</text>
</g>
</g>
</svg>
